<?xml version="1.0" standalone="no"?>
<!DOCTYPE svg PUBLIC "-//W3C//DTD SVG 20010904//EN"
 "http://www.w3.org/TR/2001/REC-SVG-20010904/DTD/svg10.dtd">
<svg version="1.0" xmlns="http://www.w3.org/2000/svg"
 width="106.000000pt" height="106.000000pt" viewBox="0 0 106.000000 106.000000"
 preserveAspectRatio="xMidYMid meet">
<metadata>
Created by potrace 1.12, written by Peter Selinger 2001-2015
</metadata>
<g transform="translate(0.000000,106.000000) scale(0.100000,-0.100000)"
fill="#000000" stroke="none">
<path d="M0 795 l0 -265 265 0 265 0 0 -265 0 -265 265 0 265 0 0 265 0 265
-265 0 -265 0 0 265 0 265 -265 0 -265 0 0 -265z m345 162 c53 -53 58 -148 12
-232 -27 -49 -93 -85 -154 -85 -41 0 -43 1 -43 30 0 25 4 30 25 30 38 0 92 25
104 48 16 30 14 34 -10 21 -12 -6 -37 -9 -57 -6 -95 16 -119 135 -41 202 24
19 42 25 81 25 43 0 54 -4 83 -33z m527 -546 c38 -42 37 -92 -1 -152 -15 -25
-40 -55 -55 -67 l-27 -21 58 -3 c57 -3 58 -3 61 -35 l3 -33 -120 0 c-117 0
-121 1 -121 21 0 13 30 53 75 100 77 80 92 118 63 147 -15 15 -63 16 -90 1
-16 -9 -23 -8 -29 2 -29 45 27 82 111 75 34 -3 51 -11 72 -35z"/>
<path d="M710 977 c-27 -14 -35 -34 -21 -56 7 -11 15 -11 44 0 54 19 87 1 87
-47 0 -31 -10 -45 -75 -112 -106 -108 -104 -112 45 -112 l120 0 0 30 0 30 -61
0 -62 0 47 50 c25 27 51 61 56 75 22 57 4 117 -41 141 -34 17 -105 18 -139 1z"/>
<path d="M203 434 c-44 -22 -66 -60 -66 -113 0 -37 5 -49 33 -74 29 -26 38
-29 81 -25 27 3 49 2 49 -2 0 -19 -55 -54 -93 -59 -35 -5 -43 -10 -45 -30 -5
-36 8 -42 67 -31 108 20 155 86 149 207 -3 66 -6 76 -34 104 -38 38 -94 47
-141 23z"/>
</g>
</svg>
